<?xml version="1.0" encoding="UTF-8"?>
<svg id="Layer_1" data-name="Layer 1" xmlns="http://www.w3.org/2000/svg" version="1.1" viewBox="0 0 5000 1080">
  <defs>
    <style>
      .cls-1 {
        fill: #051026;
      }

      .cls-1, .cls-2 {
        stroke-width: 0px;
      }

      .cls-3 {
        isolation: isolate;
      }

      .cls-2 {
        fill: #0c70f2;
      }
    </style>
  </defs>
  <g>
    <rect class="cls-1" x="229.8" y="222" width="178.7" height="57.1" rx="22.6" ry="22.6"/>
    <rect class="cls-1" x="229.8" y="336.4" width="178.7" height="57.1" rx="22.5" ry="22.5"/>
    <rect class="cls-1" x="229.8" y="450.8" width="178.7" height="57.1" rx="22.5" ry="22.5"/>
    <rect class="cls-1" x="229.7" y="565.2" width="500.4" height="57.1" rx="22.6" ry="22.6"/>
    <rect class="cls-1" x="229.7" y="679.6" width="500.4" height="57.1" rx="22.6" ry="22.6"/>
    <path class="cls-2" d="M444.2,471.5v-212.9c0-32.4,39.1-48.7,62-25.8l212.5,212.9c22.9,22.9,6.7,62.2-25.7,62.2h-212.5c-20.1,0-36.3-16.3-36.3-36.4h0Z"/>
  </g>
  <g class="cls-3">
    <g class="cls-3">
      <path class="cls-1" d="M1096.1,742.1h-154.4V224.9h154.4c167.7,0,268.2,116,268.2,258.6s-100.5,258.6-268.2,258.6ZM1096.1,272.2h-97.5v422.6h97.5c131.5,0,210.6-94.6,210.6-211.3s-79.1-211.3-210.6-211.3Z"/>
      <path class="cls-1" d="M1818,742.1h-55.4v-73.1c-32.5,55.4-85,81.3-146.3,81.3-111.6,0-183.2-86.4-183.2-192.1s71.7-192.1,183.2-192.1,113.8,25.9,146.3,81.3v-73.1h55.4v367.9ZM1621.4,700.7c78.3,0,141.9-56.9,141.9-142.6s-63.5-142.6-141.9-142.6-133,63.5-133,142.6,49.5,142.6,133,142.6Z"/>
      <path class="cls-1" d="M2009.3,631.2c0,53.2,27.3,69.4,54.7,69.4s53.2-17,53.2-48-.7-17-5.2-26.6h51c5.9,13.3,5.9,33.2,5.9,33.2,0,51-38.4,90.9-105.7,90.9s-109.3-25.9-109.3-122.6v-209.1h-62.1v-44.3h62.1l13.3-111.6h42.1v111.6h119.7v44.3h-119.7v212.8Z"/>
      <path class="cls-1" d="M2593.7,742.1h-55.4v-73.1c-32.5,55.4-85,81.3-146.3,81.3-111.6,0-183.2-86.4-183.2-192.1s71.7-192.1,183.2-192.1,113.8,25.9,146.3,81.3v-73.1h55.4v367.9ZM2397.2,700.7c78.3,0,141.9-56.9,141.9-142.6s-63.5-142.6-141.9-142.6-133,63.5-133,142.6,49.5,142.6,133,142.6Z"/>
      <path class="cls-1" d="M2771.8,742.1h-55.4V207.9h55.4v534.2Z"/>
      <path class="cls-1" d="M3058.4,366c106.4,0,193.6,87.2,193.6,192.1s-87.2,192.1-193.6,192.1-192.8-85-192.8-192.1,86.4-192.1,192.8-192.1ZM3058.4,700.7c76.1,0,138.2-63.5,138.2-141.9s-62.1-143.3-138.2-143.3-137.4,64.3-137.4,143.3,62.1,141.9,137.4,141.9Z"/>
      <path class="cls-1" d="M3699.7,737.6c0,117.5-85.7,178.1-190.6,178.1s-117.5-20.7-156.6-51l22.2-43.6c39.9,32.5,85.7,45.1,134.5,45.1,80.5,0,135.2-48.8,135.2-133v-64.3c-32.5,55.4-85,81.3-146.3,81.3-111.6,0-183.2-86.4-183.2-192.1s71.7-192.1,183.2-192.1,113.8,25.9,146.3,81.3v-73.1h55.4v363.5ZM3503.2,700.7c78.3,0,141.9-56.9,141.9-142.6s-63.5-142.6-141.9-142.6-133,63.5-133,142.6,49.5,142.6,133,142.6Z"/>
      <path class="cls-1" d="M3849,209.4c22.9,0,40.6,17.7,40.6,41.4s-17.7,40.6-40.6,40.6-39.9-17-39.9-40.6,17-41.4,39.9-41.4ZM3877,742.1h-55.4v-367.9h55.4v367.9Z"/>
      <path class="cls-1" d="M4179.2,366c31,0,81.3,8.1,130,43.6l-26.6,38.4c-40.6-30.3-86.4-32.5-102-32.5-91.6,0-152.9,60.6-153.7,142.6.7,82,62.1,142.6,153.7,142.6s61.3-2.2,102-32.5l26.6,38.4c-48.8,35.5-99,43.6-130,43.6-113-1.5-207.6-68.7-207.6-192.1s94.6-190.6,207.6-192.1Z"/>
      <path class="cls-1" d="M4556,457.6c-10.3-31-34-42.9-59.1-42.9-42.9,0-67.2,28.8-67.2,56.9s25.9,45.1,51,53.2l54.7,17.7c65,21.4,87.9,59.8,87.9,100.5,0,67.2-61.3,107.1-129.3,107.1s-119-31-135.9-87.9l48.8-12.6c11.1,31,45.8,51.7,87.2,51.7s73.9-22.9,73.9-58.4-20.7-43.6-52.5-53.9l-51.7-17c-52.5-17-89.4-46.5-89.4-98.3s45.1-107.9,119-107.9,98.3,23.6,112.3,79.8l-49.5,11.8Z"/>
    </g>
  </g>
</svg>