<?xml version="1.0" encoding="UTF-8"?>
<svg id="Layer_1" data-name="Layer 1" xmlns="http://www.w3.org/2000/svg" version="1.1" viewBox="0 0 5000 1080">
  <defs>
    <style>
      .cls-1 {
        isolation: isolate;
      }

      .cls-2 {
        fill: #0c70f2;
      }

      .cls-2, .cls-3 {
        stroke-width: 0px;
      }

      .cls-3 {
        fill: #fff;
      }
    </style>
  </defs>
  <g>
    <rect class="cls-3" x="229.8" y="222" width="178.7" height="57.1" rx="22.6" ry="22.6"/>
    <rect class="cls-3" x="229.8" y="336.4" width="178.7" height="57.1" rx="22.5" ry="22.5"/>
    <rect class="cls-3" x="229.8" y="450.8" width="178.7" height="57.1" rx="22.5" ry="22.5"/>
    <rect class="cls-3" x="229.7" y="565.2" width="500.4" height="57.1" rx="22.6" ry="22.6"/>
    <rect class="cls-3" x="229.7" y="679.6" width="500.4" height="57.1" rx="22.6" ry="22.6"/>
    <path class="cls-2" d="M444.2,471.5v-212.9c0-32.4,39.1-48.7,62-25.8l212.5,212.9c22.9,22.9,6.7,62.2-25.7,62.2h-212.5c-20.1,0-36.3-16.3-36.3-36.4h0Z"/>
  </g>
  <g class="cls-1">
    <g class="cls-1">
      <path class="cls-3" d="M936.5,715.5V251.5c0-17,9.6-26.6,26.6-26.6h142.6c164.8,0,266,116,266,258.6s-101.2,258.6-266,258.6h-142.6c-17,0-26.6-9.6-26.6-26.6ZM1104.3,677.8c116,0,187.7-86.4,187.7-194.3s-71.7-194.3-187.7-194.3h-89.4v388.6h89.4Z"/>
      <path class="cls-3" d="M1433.8,556.6c0-106.4,73.1-192.8,183.2-192.8s97.5,17,132.3,66.5v-31.8c0-17,10.3-26.6,27.3-26.6h22.2c17,0,26.6,9.6,26.6,26.6v317c0,17-9.6,26.6-26.6,26.6h-22.2c-17,0-27.3-9.6-27.3-26.6v-31.8c-34.7,49.5-82.7,66.5-132.3,66.5-110.1,0-183.2-87.2-183.2-193.6ZM1750.7,556.6c-.7-73.1-50.2-127.1-123.4-127.1s-117.5,58.4-117.5,127.1,42.9,127.1,117.5,127.1,122.6-53.9,123.4-127.1Z"/>
      <path class="cls-3" d="M1955.4,624.6v-193.6h-45.1c-9.6,0-14.8-5.9-14.8-15.5v-28.8c0-9.6,5.2-14.8,14.8-14.8h46.5l13.3-85c2.2-14,10.3-21.4,23.6-21.4h15.5c14,0,22.2,8.9,22.2,22.9v83.5h101.2c9.6,0,14.8,5.2,14.8,14.8v28.8c0,9.6-5.2,15.5-14.8,15.5h-101.2v198c0,39.9,19.2,55.4,42.9,55.4s43.6-13.3,43.6-39.9,0-8.1-1.5-14c-1.5-10.3,3-17,13.3-17h34c8.9,0,15.5,3.7,17,13.3,3,12.6,3,26.6,3,27.3,0,55.4-39.9,96-110.8,96s-117.5-30.3-117.5-125.6Z"/>
      <path class="cls-3" d="M2222.8,556.6c0-106.4,73.1-192.8,183.2-192.8s97.5,17,132.3,66.5v-31.8c0-17,10.3-26.6,27.3-26.6h22.2c17,0,26.6,9.6,26.6,26.6v317c0,17-9.6,26.6-26.6,26.6h-22.2c-17,0-27.3-9.6-27.3-26.6v-31.8c-34.7,49.5-82.7,66.5-132.3,66.5-110.1,0-183.2-87.2-183.2-193.6ZM2539.8,556.6c-.7-73.1-50.2-127.1-123.4-127.1s-117.5,58.4-117.5,127.1,42.9,127.1,117.5,127.1,122.6-53.9,123.4-127.1Z"/>
      <path class="cls-3" d="M2728.2,715.5V234.5c0-17,10.3-26.6,27.3-26.6h22.2c17,0,26.6,9.6,26.6,26.6v481c0,17-9.6,26.6-26.6,26.6h-22.2c-17,0-27.3-9.6-27.3-26.6Z"/>
      <path class="cls-3" d="M2890.7,556.6c0-106.4,87.2-192.8,195.1-192.8s196.5,87.2,196.5,192.8-87.9,193.6-196.5,193.6-195.1-85.7-195.1-193.6ZM3206.2,557.4c0-70.2-53.2-127.1-120.4-127.1s-119.7,56.9-119.7,127.1,53.9,126.3,119.7,126.3,120.4-56.2,120.4-126.3Z"/>
      <path class="cls-3" d="M3395.3,877.3c-13.3-8.9-15.5-22.2-8.1-36.9l5.9-10.3c8.1-17,20.7-18.5,36.2-8.9,31.8,19.9,68,28.8,105.7,28.8,70.9,0,119.7-40.6,119.7-119v-47.3c-34.7,49.5-82.7,66.5-132.3,66.5-110.8,0-183.2-87.2-183.2-193.6s72.4-192.8,183.2-192.8,97.5,17,132.3,66.5v-32.5c0-16.3,10.3-25.9,27.3-25.9h21.4c17,0,27.3,9.6,27.3,26.6v337.6c0,125.6-92.4,179.5-195.1,179.5s-106.4-16.3-140.4-38.4ZM3656.1,556.6c-.7-73.1-50.2-127.1-123.4-127.1s-117.5,58.4-117.5,127.1,42.9,127.1,117.5,127.1,122.6-53.9,123.4-127.1Z"/>
      <path class="cls-3" d="M3830.5,254.4c0-28.8,21.4-51.7,51-51.7s52.5,22.9,52.5,51.7-22.9,50.2-52.5,50.2-51-22.2-51-50.2ZM3843.8,715.5v-317c0-17,10.3-26.6,27.3-26.6h22.2c17,0,26.6,9.6,26.6,26.6v317c0,17-9.6,26.6-26.6,26.6h-22.2c-17,0-27.3-9.6-27.3-26.6Z"/>
      <path class="cls-3" d="M4007.1,561.1c0-108.6,74.6-197.3,208.4-197.3s69.4,5.9,111.6,30.3c15.5,8.9,17.7,23.6,7.4,37.7l-5.9,7.4c-10.3,14-21.4,14.8-37.7,7.4-31.8-15.5-63.5-16.3-71.7-16.3-78.3,0-135.9,51.7-135.9,126.3s57.6,127.1,135.9,127.1,39.9-.7,71.7-16.3c16.3-8.1,28.1-6.6,37.7,7.4l5.2,7.4c10.3,14,5.2,31.8-18.5,43.6-36.9,19.9-73.1,24.4-99.7,24.4-130.8,0-208.4-83.5-208.4-189.1Z"/>
      <path class="cls-3" d="M4400.9,678.5c-8.9-17,0-28.8,17.7-33.2l15.5-4.4c14.8-3.7,23.6,3,33.2,15.5,14.8,18.5,39.9,30.3,68.7,30.3s62.1-20.7,62.1-48.8-19.9-36.2-45.8-45.1l-49.5-17c-56.9-17-92.4-48.8-92.4-101.2s50.2-110.8,124.1-110.8,88.7,15.5,113,60.6c9.6,17,.7,30.3-17,34l-14,3c-15.5,4.4-24.4-2.2-34.7-15.5-12.6-14.8-28.8-19.2-45.1-19.2-32.5,0-53.2,19.9-53.2,45.8s21.4,36.2,42.9,42.9l53.2,17.7c70.9,22.2,90.1,65.8,90.1,105.7,0,70.9-62.1,111.6-134.5,111.6s-109.3-24.4-134.5-71.7Z"/>
    </g>
  </g>
</svg>